# xmcd
#
# Track frame offsets: 
#        150
#        12975
#        25800
#        38100
#        50850
#        62325
#        75225
#        87375
#        100125
#        112575
#        123750
#        136200
#        148425
#        159975
#        173475
#        187350
#        199950
#        214540
#
# Disc length: 3043 seconds
#
# Revision: 2
# Processed by: cddbd v1.5.1PL0 Copyright (c) Steve Scherf et al.
# Submitted via: ExactAudioCopy v0.95a5
#
DISCID=ed0be112
DTITLE=Various Artist - Woke Up This Mornin' Vol. 2
DYEAR=1993
DGENRE=Blues
TTITLE0=Muddy Waters/Got My Mojo Working
TTITLE1=Chuck Berry/Route 66
TTITLE2=Little Walter/Key To The Highway
TTITLE3=Betty James/I'm A Little Mixed Up
TTITLE4=Clarence Gatemouth Brown/Okie Dokie Stomp
TTITLE5=Sonny Parker/She Sets My Soul On Fire
TTITLE6=Larry Davis/Texas Flood
TTITLE7=Big Mama Thornton/Hound Dog
TTITLE8=Joe Turner (with Pete Johnson)/Rebecca
TTITLE9=Johnny Ace/Pledging My Love
TTITLE10=Howlin' Wolf/Spoonful
TTITLE11=John Lee Hooker/Walkin' The Boogie
TTITLE12=Sonny Boy Williamson/Don't Start Me Talkin'
TTITLE13=Albert King/Bad Luck Blues
TTITLE14=Bo Diddley/Before You Accuse me
TTITLE15=Jackie Brentson/Rocket 88
TTITLE16=Eddie Boyd/Third Degree
TTITLE17=Koko Taylor/What Kind Of Man Is This
EXTD=
EXTT0=
EXTT1=
EXTT2=
EXTT3=
EXTT4=
EXTT5=
EXTT6=
EXTT7=
EXTT8=
EXTT9=
EXTT10=
EXTT11=
EXTT12=
EXTT13=
EXTT14=
EXTT15=
EXTT16=
EXTT17=
PLAYORDER=
